<?xml version="1.0"?>
<svg xmlns="http://www.w3.org/2000/svg" height="512px" viewBox="0 0 448 448" width="512px"><g><path d="m448 296v-24h-448v24c0 4.417969 3.582031 8 8 8h432c4.417969 0 8-3.582031 8-8zm0 0" data-original="#000000" class="active-path" data-old_color="#000000" fill="#FFFFFF"/><path d="m298.128906 415.6875c-28.480468-3.039062-50.089844-27.046875-50.128906-55.6875-.003906-15.066406 6.085938-29.496094 16.886719-40h-81.773438c10.71875 10.441406 16.800781 24.746094 16.886719 39.707031.082031 14.964844-5.84375 29.335938-16.449219 39.894531-9.011719 9.113282-20.921875 14.804688-33.679687 16.085938l-10.765625 32.3125h169.789062zm0 0" data-original="#000000" class="active-path" data-old_color="#000000" fill="#FFFFFF"/><path d="m256 128c0 17.671875-14.328125 32-32 32s-32-14.328125-32-32 14.328125-32 32-32 32 14.328125 32 32zm0 0" data-original="#000000" class="active-path" data-old_color="#000000" fill="#FFFFFF"/><path d="m0 256h448v-248c0-4.417969-3.582031-8-8-8h-432c-4.417969 0-8 3.582031-8 8zm120-144c.003906-3.441406 2.207031-6.496094 5.472656-7.585938l23.03125-7.679687-10.855468-21.726563c-1.539063-3.082031-.933594-6.796874 1.503906-9.230468l22.625-22.625c2.433594-2.4375 6.148437-3.042969 9.230468-1.503906l21.726563 10.855468 7.679687-23.03125c1.089844-3.265625 4.144532-5.46875 7.585938-5.472656h32c3.441406.003906 6.496094 2.207031 7.585938 5.472656l7.679687 23.03125 21.726563-10.855468c3.082031-1.539063 6.796874-.933594 9.230468 1.503906l22.625 22.625c2.4375 2.433594 3.042969 6.148437 1.503906 9.230468l-10.855468 21.726563 23.03125 7.679687c3.265625 1.089844 5.46875 4.144532 5.472656 7.585938v32c-.003906 3.441406-2.207031 6.496094-5.472656 7.585938l-23.03125 7.679687 10.855468 21.726563c1.539063 3.082031.933594 6.796874-1.503906 9.230468l-22.625 22.625c-2.433594 2.4375-6.148437 3.042969-9.230468 1.503906l-21.726563-10.855468-7.679687 23.03125c-1.089844 3.265625-4.144532 5.46875-7.585938 5.472656h-32c-3.441406-.003906-6.496094-2.207031-7.585938-5.472656l-7.679687-23.03125-21.726563 10.855468c-3.082031 1.539063-6.796874.933594-9.230468-1.503906l-22.625-22.625c-2.4375-2.433594-3.042969-6.148437-1.503906-9.230468l10.855468-21.726563-23.03125-7.679687c-3.265625-1.089844-5.46875-4.144532-5.472656-7.585938zm0 0" data-original="#000000" class="active-path" data-old_color="#000000" fill="#FFFFFF"/><path d="m167.199219 151.527344c.890625 2.144531.804687 4.566406-.230469 6.640625l-12.410156 24.800781 14.472656 14.472656 24.800781-12.410156c2.074219-1.035156 4.492188-1.117188 6.632813-.230469s3.792968 2.65625 4.527344 4.855469l8.800781 26.320312h20.464843l8.796876-26.320312c.734374-2.210938 2.390624-3.988281 4.542968-4.878906 2.148438-.886719 4.582032-.792969 6.660156.253906l24.796876 12.410156 14.472656-14.472656-12.40625-24.800781c-1.035156-2.074219-1.121094-4.492188-.234375-6.632813s2.660156-3.792968 4.855469-4.527344l26.320312-8.800781v-20.4375l-26.320312-8.800781c-2.195313-.734375-3.96875-2.386719-4.855469-4.527344s-.800781-4.558594.234375-6.632812l12.40625-24.800782-14.472656-14.472656-24.796876 12.410156c-2.078124 1.046876-4.511718 1.140626-6.660156.253907-2.152344-.890625-3.808594-2.671875-4.542968-4.878907l-8.824219-26.320312h-20.460938l-8.800781 26.320312c-.734375 2.199219-2.386719 3.96875-4.527344 4.855469s-4.558594.804688-6.632812-.230469l-24.800782-12.410156-14.472656 14.472656 12.410156 24.800782c1.035157 2.074218 1.117188 4.492187.230469 6.632812s-2.65625 3.792969-4.855469 4.527344l-26.320312 8.800781v20.460938l26.320312 8.800781c2.199219.722656 3.980469 2.363281 4.878907 4.496094zm56.800781-71.527344c26.507812 0 48 21.492188 48 48s-21.492188 48-48 48-48-21.492188-48-48c.027344-26.5 21.5-47.972656 48-48zm0 0" data-original="#000000" class="active-path" data-old_color="#000000" fill="#FFFFFF"/></g> </svg>
