<?xml version="1.0" encoding="utf-8"?>
<!-- Generator: Adobe Illustrator 16.0.0, SVG Export Plug-In . SVG Version: 6.00 Build 0)  -->
<!DOCTYPE svg PUBLIC "-//W3C//DTD SVG 1.1//EN" "http://www.w3.org/Graphics/SVG/1.1/DTD/svg11.dtd">
<svg version="1.1" id="Calque_1" xmlns="http://www.w3.org/2000/svg" xmlns:xlink="http://www.w3.org/1999/xlink" x="0px" y="0px"
	 width="512px" height="512px" viewBox="0 0 512 512" enable-background="new 0 0 512 512" xml:space="preserve">
<g>
	<path fill="#0F3750" d="M437.928,410.539c0.09-95.593,0.176-202.444,0.037-263.037c-0.055-23.362-18.104-42.152-40.227-42.152
		h-0.708c-8.704,0-17.189,2.494-23.511,7.481V70.21c0-23.428-17.975-42.44-40.156-42.437c-8.646,0.029-17.033,2.959-23.811,8.321
		C306.664,15.642,289.923,0,269.767,0h-0.745c-22.181,0-39.831,18.856-39.831,42.28v14.807c-7.375-4.975-14.848-7.91-23.547-7.91
		c-22.172,0-40.416,19.045-40.432,42.457L165.08,283.91l-10.84-13.198c-9.539-11.881-23.589-19.263-38.786-20.378
		c-14.885-1.025-29.535,4.156-40.465,14.317l-9.466,7.835c-3.053,2.522-3.926,6.84-2.095,10.354l92.07,176.827
		C172.334,492.008,204.368,512,239.096,512h103.264C395.001,512,437.873,466.601,437.928,410.539z M421.071,410.522
		c-0.046,46.778-35.354,84.621-78.712,84.621H239.096c-28.419,0-54.725-16.514-68.646-43.259l-88.93-170.74l4.383-3.635
		c0.111-0.09,0.218-0.185,0.325-0.283c7.543-7.104,17.704-10.749,28.045-10.066c10.572,0.811,20.325,5.976,26.938,14.264
		l25.766,31.362c2.26,2.749,6,3.786,9.35,2.584c3.35-1.197,5.584-4.37,5.589-7.93l0.151-215.786
		c0.009-14.124,10.495-25.613,23.367-25.613c12.584,0,22.873,10.951,23.362,24.617c0.004,21.794,0.012,45.523,0.012,68.095
		c0.008,51.07,0.017,95.177,0,99.452c-0.016,4.654,3.745,8.441,8.399,8.457c4.654,0.018,8.44-3.744,8.457-8.398
		c0.021-4.305,0.013-48.42,0-99.511c-0.004-22.029-0.012-45.16-0.012-66.519c0.017-0.181,0.017-0.354,0.017-0.539
		c0-0.432-0.004-0.839-0.017-1.263V42.378c0-14.127,10.486-25.522,23.37-25.522h0.745c12.89,0,23.688,11.3,23.688,25.436V258.23
		c0,4.654,3.77,8.428,8.428,8.428c4.654,0,8.429-3.773,8.429-8.428V70.21c0-14.132,10.25-25.634,23.139-25.634
		c12.959,0,23.215,11.502,23.215,25.634v188.013c0,4.654,3.77,8.428,8.428,8.428c4.654,0,8.428-3.773,8.428-8.428V147.395
		c0-14.136,10.625-25.189,23.511-25.189h0.708c12.852,0,23.337,11.243,23.37,25.337
		C421.248,208.107,421.162,314.942,421.071,410.522z"/>
</g>
</svg>
